<svg xmlns="http://www.w3.org/2000/svg" xmlns:xlink="http://www.w3.org/1999/xlink" version="1.1" x="0px" y="0px" viewBox="0 0 100 125" style="enable-background:new 0 0 100 100;" xml:space="preserve"><path d="M92.1,38.8L83.8,47c-1.5-20.3-18.6-36.4-39.3-36.4C22.8,10.6,5.1,28.3,5.1,50s17.7,39.4,39.4,39.4v-4  C25,85.4,9.1,69.5,9.1,50S25,14.6,44.5,14.6c18.5,0,33.7,14.3,35.3,32.4l-8-8L69,41.8l11.5,11.5c0.4,0.4,0.9,0.6,1.4,0.6  s1-0.2,1.4-0.6l11.6-11.6L92.1,38.8z"/><text x="0" y="115" fill="#000000" font-size="5px" font-weight="bold" font-family="'Helvetica Neue', Helvetica, Arial-Unicode, Arial, Sans-serif">Created by Gonzague De Sazilly</text><text x="0" y="120" fill="#000000" font-size="5px" font-weight="bold" font-family="'Helvetica Neue', Helvetica, Arial-Unicode, Arial, Sans-serif">from the Noun Project</text></svg>